<?xml version="1.0" encoding="UTF-8"?>
<svg id="OBJECTS" xmlns="http://www.w3.org/2000/svg" xmlns:xlink="http://www.w3.org/1999/xlink" viewBox="0 0 250.97 187.45">
  <defs>
    <style>
      .cls-1 {
        letter-spacing: -.01em;
      }

      .cls-2 {
        font-family: Montserrat-Medium, Montserrat;
        font-size: 3px;
        font-weight: 500;
      }

      .cls-2, .cls-3 {
        fill: #4475ab;
      }

      .cls-4 {
        letter-spacing: -.02em;
      }

      .cls-5 {
        fill: #f9b341;
      }

      .cls-5, .cls-6, .cls-7, .cls-8, .cls-9, .cls-10, .cls-3 {
        stroke-width: 0px;
      }

      .cls-6, .cls-11 {
        fill: #e37059;
      }

      .cls-7 {
        fill: #e7a327;
      }

      .cls-8 {
        fill: #1b314f;
      }

      .cls-9, .cls-12 {
        fill: none;
      }

      .cls-12 {
        stroke: #1b314f;
        stroke-miterlimit: 10;
        stroke-width: .5px;
      }

      .cls-10 {
        fill: #fff;
      }

      .cls-13 {
        letter-spacing: -.01em;
      }

      .cls-14 {
        letter-spacing: 0em;
      }

      .cls-15 {
        letter-spacing: 0em;
      }

      .cls-16 {
        letter-spacing: 0em;
      }

      .cls-17 {
        clip-path: url(#clippath);
      }

      .cls-18 {
        letter-spacing: .01em;
      }

      .cls-19 {
        letter-spacing: 0em;
      }

      .cls-20 {
        letter-spacing: 0em;
      }

      .cls-21 {
        letter-spacing: -.02em;
      }

      .cls-11 {
        font-family: Montserrat-ExtraBold, Montserrat;
        font-size: 14.32px;
        font-weight: 700;
      }

      .cls-22 {
        letter-spacing: 0em;
      }

      .cls-23 {
        letter-spacing: -.02em;
      }

      .cls-24 {
        letter-spacing: 0em;
      }

      .cls-25 {
        letter-spacing: .01em;
      }

      .cls-26 {
        letter-spacing: 0em;
      }
    </style>
    <clipPath id="clippath">
      <rect class="cls-9" x="21.54" y="25.28" width="219.35" height="123.64"/>
    </clipPath>
  </defs>
  <g class="cls-17">
    <rect id="white" class="cls-10" x="21.54" y="25.41" width="219.35" height="123.51"/>
    <g id="yellow">
      <path class="cls-5" d="m47.25,101.66c1.6-3.59,4.29-6.34,7.5-8.06l8.07,15.02,8.89-14.55c7.24,4.39,10.23,13.59,6.69,21.52-3.85,8.6-13.94,12.45-22.54,8.61-3.41-1.53-6.08-4.04-7.81-7.05-2.29-3.97-2.95-8.8-1.56-13.41.2-.7.46-1.39.77-2.08Z"/>
      <path class="cls-5" d="m119.43,121.95c-3.99,3.18-9.36,4.55-14.69,3.25-.72-.18-1.41-.4-2.07-.66l6.12-15.91,10.64,13.33Z"/>
      <polygon class="cls-5" points="157.04 67.52 171.08 46.8 186.45 59.9 195.81 47.74 208.51 63.11 218.53 57.16 225.88 67.52 157.04 67.52"/>
      <rect class="cls-5" x="197.26" y="86.29" width="3.1" height="22.31" transform="translate(397.62 194.89) rotate(180)"/>
      <rect class="cls-5" x="192.94" y="94.04" width="3.1" height="14.56" transform="translate(388.99 202.64) rotate(180)"/>
      <rect class="cls-5" x="188.63" y="100.2" width="3.1" height="8.4" transform="translate(380.36 208.8) rotate(180)"/>
      <rect class="cls-5" x="184.31" y="91.61" width="3.1" height="16.99" transform="translate(371.73 200.21) rotate(180)"/>
      <path class="cls-7" d="m19.95,3.87c13.08,7.2,23.78,18.62,30.13,32.12-3.87.84-7.42-2.11-10.35-4.76-4.89-4.42-10-8.58-15.32-12.47,5.88,7.91,10.39,16.82,13.3,26.23.7,2.26,1.31,4.66.81,6.98-.11.51-.3,1.03-.71,1.34-.53.39-1.28.31-1.89.06-1.87-.76-2.92-2.71-3.82-4.51-4.11-8.25-8.07-16.57-11.89-24.96.93,6.47,1.86,12.99,1.58,19.53-.13,2.93-.58,6.02-2.43,8.29-.31.38-.82.76-1.25.52-.23-.13-.34-.4-.42-.65-3.48-9.85-4.23-20.64-2.17-30.87-1.54,7.36-5.28,14.25-10.62,19.55-.48.48-1.06.98-1.74.96-.68-.01-1.24-.55-1.64-1.11-1.92-2.7-1.62-6.33-1.22-9.62C1.58,19.7,3.24,8.24,10.33,0"/>
      <path class="cls-7" d="m235.36,185.04c-14-5.18-26.28-14.88-34.56-27.3,3.7-1.41,7.65.99,10.94,3.18,5.49,3.64,11.16,7,17,10.06-6.98-6.95-12.77-15.09-17.04-23.97-1.03-2.13-1.99-4.42-1.83-6.78.03-.52.14-1.07.5-1.43.47-.47,1.22-.49,1.86-.34,1.96.47,3.29,2.24,4.45,3.9,5.28,7.55,10.44,15.19,15.46,22.92-1.88-6.26-3.77-12.57-4.45-19.08-.31-2.92-.32-6.04,1.18-8.56.25-.42.7-.87,1.16-.7.25.1.39.35.52.58,4.9,9.22,7.24,19.78,6.72,30.21.43-7.51,3.11-14.87,7.6-20.9.41-.55.9-1.12,1.57-1.21.68-.09,1.31.36,1.78.85,2.3,2.38,2.54,6.02,2.64,9.33.33,10.86.38,22.45-5.41,31.64"/>
    </g>
    <g id="blue">
      <text class="cls-2" transform="translate(45.76 67.03)"><tspan class="cls-14" x="0" y="0">L</tspan><tspan x="1.76" y="0">o</tspan><tspan class="cls-13" x="3.67" y="0">r</tspan><tspan x="4.86" y="0">em ipsum dolor sit a</tspan><tspan class="cls-16" x="35.98" y="0">m</tspan><tspan x="39.16" y="0">e</tspan><tspan class="cls-22" x="41" y="0">t</tspan><tspan x="42.27" y="0">, </tspan><tspan class="cls-26" x="43.76" y="0">c</tspan><tspan x="45.45" y="0">onse</tspan><tspan class="cls-24" x="52.73" y="0">c</tspan><tspan class="cls-23" x="54.47" y="0">t</tspan><tspan x="55.65" y="0">etuer </tspan><tspan class="cls-16" x="64.64" y="0">a</tspan><tspan x="66.44" y="0">dipisci</tspan><tspan class="cls-15" x="76.26" y="0">n</tspan><tspan x="78.31" y="0">g eli</tspan><tspan class="cls-18" x="84.7" y="0">t</tspan><tspan x="85.97" y="0">, </tspan><tspan x="0" y="3.6">sed diam </tspan><tspan class="cls-15" x="14.85" y="3.6">n</tspan><tspan x="16.9" y="3.6">onum</tspan><tspan class="cls-19" x="26.05" y="3.6">m</tspan><tspan x="29.19" y="3.6">y nibh euis</tspan><tspan class="cls-15" x="45.66" y="3.6">m</tspan><tspan x="48.83" y="3.6">od ti</tspan><tspan class="cls-16" x="55.67" y="3.6">n</tspan><tspan x="57.72" y="3.6">cidunt ut l</tspan><tspan class="cls-15" x="73.36" y="3.6">a</tspan><tspan x="75.16" y="3.6">o</tspan><tspan class="cls-13" x="77.07" y="3.6">r</tspan><tspan x="78.26" y="3.6">eet </tspan><tspan x="0" y="7.2">dolo</tspan><tspan class="cls-13" x="6.69" y="7.2">r</tspan><tspan x="7.89" y="7.2">e m</tspan><tspan class="cls-16" x="13.7" y="7.2">a</tspan><tspan x="15.5" y="7.2">gna aliquam e</tspan><tspan class="cls-26" x="37.37" y="7.2">r</tspan><tspan x="38.58" y="7.2">at </tspan><tspan class="cls-4" x="42.42" y="7.2">v</tspan><tspan x="44.05" y="7.2">olut</tspan><tspan class="cls-20" x="50.06" y="7.2">p</tspan><tspan x="52.1" y="7.2">a</tspan><tspan class="cls-22" x="53.89" y="7.2">t</tspan><tspan x="55.16" y="7.2">. Ut wisi enim </tspan><tspan class="cls-16" x="76.45" y="7.2">a</tspan><tspan x="78.25" y="7.2">d minim </tspan><tspan class="cls-1" x="0" y="10.8">v</tspan><tspan x="1.63" y="10.8">eniam, quis </tspan><tspan class="cls-15" x="20.02" y="10.8">n</tspan><tspan x="22.08" y="10.8">ostrud </tspan><tspan class="cls-1" x="32.84" y="10.8">e</tspan><tspan class="cls-21" x="34.63" y="10.8">x</tspan><tspan x="36.23" y="10.8">e</tspan><tspan class="cls-13" x="38.07" y="10.8">r</tspan><tspan x="39.26" y="10.8">ci tation ulla</tspan><tspan class="cls-15" x="57.99" y="10.8">m</tspan><tspan class="cls-26" x="61.17" y="10.8">c</tspan><tspan x="62.86" y="10.8">o</tspan><tspan class="cls-14" x="64.76" y="10.8">r</tspan><tspan x="65.97" y="10.8">per suscipit </tspan><tspan x="0" y="14.4">lobo</tspan><tspan class="cls-25" x="6.69" y="14.4">r</tspan><tspan x="7.97" y="14.4">tis nisl ut aliquip </tspan><tspan class="cls-1" x="33.7" y="14.4">e</tspan><tspan x="35.49" y="14.4">x </tspan><tspan class="cls-1" x="37.95" y="14.4">e</tspan><tspan x="39.74" y="14.4">a </tspan><tspan class="cls-26" x="42.34" y="14.4">c</tspan><tspan x="44.03" y="14.4">om</tspan><tspan class="cls-15" x="49.11" y="14.4">m</tspan><tspan x="52.29" y="14.4">odo </tspan><tspan class="cls-26" x="58.95" y="14.4">c</tspan><tspan x="60.64" y="14.4">onsequa</tspan><tspan class="cls-22" x="73.8" y="14.4">t</tspan><tspan x="75.07" y="14.4">. Duis </tspan></text>
      <path class="cls-3" d="m46.48,103.74l16.34,4.89-14.78,8.52c-2.29-3.97-2.95-8.8-1.56-13.41Z"/>
      <path class="cls-3" d="m98.42,95.09c3.95-3.03,9.19-4.31,14.42-3.04,3.63.89,6.71,2.88,8.95,5.54l-13,11.04-10.37-13.54Z"/>
      <path class="cls-3" d="m108.79,108.63l13-11.04c2.97,3.49,4.49,8.12,3.95,12.9l-16.95-1.86Z"/>
      <rect class="cls-3" x="214.64" y="97.74" width="3.1" height="10.86" transform="translate(432.39 206.34) rotate(180)"/>
      <rect class="cls-3" x="210.33" y="89.29" width="3.1" height="19.32" transform="translate(423.76 197.89) rotate(180)"/>
      <rect class="cls-3" x="206.01" y="85.1" width="3.1" height="23.5" transform="translate(415.13 193.7) rotate(180)"/>
      <rect class="cls-3" x="201.7" y="76.44" width="3.1" height="32.16" transform="translate(406.5 185.04) rotate(180)"/>
      <rect class="cls-3" x="148.34" y="116.39" width="77.55" height="2.46"/>
      <rect class="cls-3" x="148.34" y="120.48" width="77.55" height="2.46"/>
      <rect class="cls-3" x="148.34" y="124.58" width="77.55" height="2.46"/>
    </g>
    <rect id="yellow2" class="cls-5" x="148.34" y="120.48" width="62.01" height="2.46"/>
    <g id="pink">
      <text class="cls-11" transform="translate(46.85 60.01)"><tspan x="0" y="0">Stats</tspan></text>
      <path class="cls-6" d="m47.25,101.66c1.6-3.59,4.29-6.34,7.5-8.06l8.07,15.02-16.34-4.89c.2-.7.46-1.39.77-2.08Z"/>
      <path class="cls-6" d="m125.36,112.68c-.93,3.82-3.08,7.01-5.93,9.28l-10.64-13.33,16.95,1.87c-.07.72-.2,1.45-.38,2.18Z"/>
      <polygon class="cls-6" points="148.34 67.52 158.15 52.38 167.2 62.19 172.57 55.07 183.15 67.52 148.34 67.52"/>
      <rect class="cls-6" x="149.79" y="97.74" width="3.1" height="10.86"/>
      <rect class="cls-6" x="154.1" y="89.29" width="3.1" height="19.32"/>
      <rect class="cls-6" x="158.42" y="94.58" width="3.1" height="14.02"/>
      <rect class="cls-6" x="162.73" y="82.03" width="3.1" height="26.57"/>
      <rect class="cls-6" x="148.34" y="116.39" width="45.31" height="2.46"/>
    </g>
    <g id="darkBlue">
      <path class="cls-8" d="m54.75,93.6c4.5-2.41,10.02-2.79,15.03-.55.68.3,1.31.64,1.92,1.02l-8.89,14.55-8.07-15.02Z"/>
      <path class="cls-8" d="m92.22,104.58c.97-3.93,3.21-7.21,6.2-9.49l10.37,13.54-6.12,15.9c-7.91-3-12.51-11.53-10.45-19.95Z"/>
      <polygon class="cls-8" points="167.2 67.52 182.44 48.14 193.27 59.9 198.35 56.56 206.77 67.52 167.2 67.52"/>
      <rect class="cls-8" x="167.17" y="86.29" width="3.1" height="22.31"/>
      <rect class="cls-8" x="171.49" y="94.04" width="3.1" height="14.56"/>
      <rect class="cls-8" x="175.8" y="100.2" width="3.1" height="8.4"/>
      <rect class="cls-8" x="180.12" y="87.23" width="3.1" height="21.37"/>
      <rect class="cls-8" x="148.34" y="124.58" width="27" height="2.46"/>
      <path class="cls-12" d="m9.5,139.46c3.11-6.67,11.96-9.12,18.99-6.96,1.82.56,3.63,1.42,4.86,2.88s1.73,3.65.83,5.33c-.9,1.68-3.41,2.41-4.85,1.15-1.36-1.19-1.16-3.51,0-4.9s2.98-2.02,4.75-2.41c4.63-1,9.54-.64,13.97,1.02,3.09,1.16,6.07,2.96,9.37,2.95,5.11,0,9.4-4.34,14.5-4.55,3.71-.16,7.09,1.87,10.5,3.35,4.47,1.94,9.33,2.99,14.21,3.07,3.99.07,8-.5,11.97-.04,9.48,1.11,17.84,8.69,19.88,18.01,1.15,5.28.42,10.76-.31,16.12"/>
      <path class="cls-12" d="m98.67,19.17c-2.38,4.91-1.78,11.41,2.2,15.15,3.98,3.74,11.28,3.57,14.43-.89.4-.57.73-1.33.36-1.92-.47-.76-1.7-.52-2.32.12-1.03,1.06-1.11,2.79-.5,4.14.61,1.35,1.77,2.36,3.02,3.15,3.98,2.56,8.96,3.29,13.64,2.65,4.69-.65,9.11-2.59,13.16-5.03,3.46-2.09,7.22-4.67,11.17-3.81,2.8.61,4.95,2.84,7.56,4.03,5.3,2.42,11.43.25,17.02-1.4,4.54-1.34,9.25-2.35,13.35-4.72,4.1-2.37,7.57-6.48,7.65-11.21"/>
    </g>
  </g>
</svg>